<svg xmlns="http://www.w3.org/2000/svg" xmlns:xlink="http://www.w3.org/1999/xlink" width="50" zoomAndPan="magnify" viewBox="0 0 37.5 37.499999" height="50" preserveAspectRatio="xMidYMid meet" version="1.0"><defs><clipPath id="40e4a41de6"><path d="M 11.214844 11.214844 L 25.792969 11.214844 L 25.792969 25.792969 L 11.214844 25.792969 Z M 11.214844 11.214844 " clip-rule="nonzero"/></clipPath><clipPath id="8cd68b6db1"><path d="M 18.503906 11.214844 C 14.476562 11.214844 11.214844 14.476562 11.214844 18.503906 C 11.214844 22.53125 14.476562 25.792969 18.503906 25.792969 C 22.53125 25.792969 25.792969 22.53125 25.792969 18.503906 C 25.792969 14.476562 22.53125 11.214844 18.503906 11.214844 Z M 18.503906 11.214844 " clip-rule="nonzero"/></clipPath><clipPath id="4f325d336c"><path d="M 0.214844 0.214844 L 14.792969 0.214844 L 14.792969 14.792969 L 0.214844 14.792969 Z M 0.214844 0.214844 " clip-rule="nonzero"/></clipPath><clipPath id="985133f855"><path d="M 7.503906 0.214844 C 3.476562 0.214844 0.214844 3.476562 0.214844 7.503906 C 0.214844 11.53125 3.476562 14.792969 7.503906 14.792969 C 11.53125 14.792969 14.792969 11.53125 14.792969 7.503906 C 14.792969 3.476562 11.53125 0.214844 7.503906 0.214844 Z M 7.503906 0.214844 " clip-rule="nonzero"/></clipPath><clipPath id="53f727e4cc"><rect x="0" width="15" y="0" height="15"/></clipPath><clipPath id="78efa75178"><path d="M 13.074219 28.015625 L 16.996094 28.015625 L 16.996094 31.9375 L 13.074219 31.9375 Z M 13.074219 28.015625 " clip-rule="nonzero"/></clipPath><clipPath id="2166867eed"><path d="M 15.035156 28.015625 C 13.949219 28.015625 13.074219 28.890625 13.074219 29.976562 C 13.074219 31.058594 13.949219 31.9375 15.035156 31.9375 C 16.117188 31.9375 16.996094 31.058594 16.996094 29.976562 C 16.996094 28.890625 16.117188 28.015625 15.035156 28.015625 Z M 15.035156 28.015625 " clip-rule="nonzero"/></clipPath><clipPath id="edf93ec3d5"><path d="M 0.0742188 0.015625 L 3.996094 0.015625 L 3.996094 3.9375 L 0.0742188 3.9375 Z M 0.0742188 0.015625 " clip-rule="nonzero"/></clipPath><clipPath id="26cf616ba2"><path d="M 2.035156 0.015625 C 0.949219 0.015625 0.0742188 0.890625 0.0742188 1.976562 C 0.0742188 3.058594 0.949219 3.9375 2.035156 3.9375 C 3.117188 3.9375 3.996094 3.058594 3.996094 1.976562 C 3.996094 0.890625 3.117188 0.015625 2.035156 0.015625 Z M 2.035156 0.015625 " clip-rule="nonzero"/></clipPath><clipPath id="b910f6324b"><rect x="0" width="4" y="0" height="4"/></clipPath><clipPath id="caac6237ad"><path d="M 18.875 31.4375 L 20.835938 31.4375 L 20.835938 33.398438 L 18.875 33.398438 Z M 18.875 31.4375 " clip-rule="nonzero"/></clipPath><clipPath id="e892abf539"><path d="M 19.855469 31.4375 C 19.3125 31.4375 18.875 31.875 18.875 32.417969 C 18.875 32.960938 19.3125 33.398438 19.855469 33.398438 C 20.394531 33.398438 20.835938 32.960938 20.835938 32.417969 C 20.835938 31.875 20.394531 31.4375 19.855469 31.4375 Z M 19.855469 31.4375 " clip-rule="nonzero"/></clipPath><clipPath id="c5c16de4ea"><path d="M 0.875 0.4375 L 2.835938 0.4375 L 2.835938 2.398438 L 0.875 2.398438 Z M 0.875 0.4375 " clip-rule="nonzero"/></clipPath><clipPath id="2fd32f0de7"><path d="M 1.855469 0.4375 C 1.3125 0.4375 0.875 0.875 0.875 1.417969 C 0.875 1.960938 1.3125 2.398438 1.855469 2.398438 C 2.394531 2.398438 2.835938 1.960938 2.835938 1.417969 C 2.835938 0.875 2.394531 0.4375 1.855469 0.4375 Z M 1.855469 0.4375 " clip-rule="nonzero"/></clipPath><clipPath id="aa9e490efe"><rect x="0" width="3" y="0" height="3"/></clipPath><clipPath id="152281be33"><path d="M 22.710938 32.417969 L 23.933594 32.417969 L 23.933594 33.640625 L 22.710938 33.640625 Z M 22.710938 32.417969 " clip-rule="nonzero"/></clipPath><clipPath id="1517ffdd14"><path d="M 23.324219 32.417969 C 22.984375 32.417969 22.710938 32.691406 22.710938 33.027344 C 22.710938 33.367188 22.984375 33.640625 23.324219 33.640625 C 23.660156 33.640625 23.933594 33.367188 23.933594 33.027344 C 23.933594 32.691406 23.660156 32.417969 23.324219 32.417969 Z M 23.324219 32.417969 " clip-rule="nonzero"/></clipPath><clipPath id="8a8743e7bb"><path d="M 0.710938 0.417969 L 1.933594 0.417969 L 1.933594 1.640625 L 0.710938 1.640625 Z M 0.710938 0.417969 " clip-rule="nonzero"/></clipPath><clipPath id="ea4b8b9795"><path d="M 1.324219 0.417969 C 0.984375 0.417969 0.710938 0.691406 0.710938 1.027344 C 0.710938 1.367188 0.984375 1.640625 1.324219 1.640625 C 1.660156 1.640625 1.933594 1.367188 1.933594 1.027344 C 1.933594 0.691406 1.660156 0.417969 1.324219 0.417969 Z M 1.324219 0.417969 " clip-rule="nonzero"/></clipPath><clipPath id="df59142169"><rect x="0" width="2" y="0" height="2"/></clipPath><clipPath id="fb11002346"><path d="M 28.015625 20.007812 L 31.9375 20.007812 L 31.9375 23.933594 L 28.015625 23.933594 Z M 28.015625 20.007812 " clip-rule="nonzero"/></clipPath><clipPath id="d230b8e2e6"><path d="M 28.015625 21.96875 C 28.015625 23.054688 28.890625 23.933594 29.976562 23.933594 C 31.058594 23.933594 31.9375 23.054688 31.9375 21.96875 C 31.9375 20.886719 31.058594 20.007812 29.976562 20.007812 C 28.890625 20.007812 28.015625 20.886719 28.015625 21.96875 Z M 28.015625 21.96875 " clip-rule="nonzero"/></clipPath><clipPath id="b2556d418f"><path d="M 0.015625 0.0078125 L 3.9375 0.0078125 L 3.9375 3.933594 L 0.015625 3.933594 Z M 0.015625 0.0078125 " clip-rule="nonzero"/></clipPath><clipPath id="66d549c514"><path d="M 0.015625 1.96875 C 0.015625 3.054688 0.890625 3.933594 1.976562 3.933594 C 3.058594 3.933594 3.9375 3.054688 3.9375 1.96875 C 3.9375 0.886719 3.058594 0.0078125 1.976562 0.0078125 C 0.890625 0.0078125 0.015625 0.886719 0.015625 1.96875 Z M 0.015625 1.96875 " clip-rule="nonzero"/></clipPath><clipPath id="ff840f3e36"><rect x="0" width="4" y="0" height="4"/></clipPath><clipPath id="2665e37bb0"><path d="M 31.4375 16.164062 L 33.398438 16.164062 L 33.398438 18.125 L 31.4375 18.125 Z M 31.4375 16.164062 " clip-rule="nonzero"/></clipPath><clipPath id="5ae08f803a"><path d="M 31.4375 17.144531 C 31.4375 17.6875 31.875 18.125 32.417969 18.125 C 32.960938 18.125 33.398438 17.6875 33.398438 17.144531 C 33.398438 16.605469 32.960938 16.164062 32.417969 16.164062 C 31.875 16.164062 31.4375 16.605469 31.4375 17.144531 Z M 31.4375 17.144531 " clip-rule="nonzero"/></clipPath><clipPath id="d5586515ee"><path d="M 0.4375 0.164062 L 2.398438 0.164062 L 2.398438 2.125 L 0.4375 2.125 Z M 0.4375 0.164062 " clip-rule="nonzero"/></clipPath><clipPath id="bfb393cd99"><path d="M 0.4375 1.144531 C 0.4375 1.6875 0.875 2.125 1.417969 2.125 C 1.960938 2.125 2.398438 1.6875 2.398438 1.144531 C 2.398438 0.605469 1.960938 0.164062 1.417969 0.164062 C 0.875 0.164062 0.4375 0.605469 0.4375 1.144531 Z M 0.4375 1.144531 " clip-rule="nonzero"/></clipPath><clipPath id="c9aec356aa"><rect x="0" width="3" y="0" height="3"/></clipPath><clipPath id="7505668ea3"><path d="M 32.417969 13.066406 L 33.640625 13.066406 L 33.640625 14.285156 L 32.417969 14.285156 Z M 32.417969 13.066406 " clip-rule="nonzero"/></clipPath><clipPath id="fbb66083cb"><path d="M 32.417969 13.675781 C 32.417969 14.011719 32.691406 14.285156 33.027344 14.285156 C 33.367188 14.285156 33.640625 14.011719 33.640625 13.675781 C 33.640625 13.339844 33.367188 13.066406 33.027344 13.066406 C 32.691406 13.066406 32.417969 13.339844 32.417969 13.675781 Z M 32.417969 13.675781 " clip-rule="nonzero"/></clipPath><clipPath id="56c73e1ff8"><path d="M 0.417969 0.0664062 L 1.640625 0.0664062 L 1.640625 1.285156 L 0.417969 1.285156 Z M 0.417969 0.0664062 " clip-rule="nonzero"/></clipPath><clipPath id="3035c2ab4a"><path d="M 0.417969 0.675781 C 0.417969 1.011719 0.691406 1.285156 1.027344 1.285156 C 1.367188 1.285156 1.640625 1.011719 1.640625 0.675781 C 1.640625 0.339844 1.367188 0.0664062 1.027344 0.0664062 C 0.691406 0.0664062 0.417969 0.339844 0.417969 0.675781 Z M 0.417969 0.675781 " clip-rule="nonzero"/></clipPath><clipPath id="f662d64d37"><rect x="0" width="2" y="0" height="2"/></clipPath><clipPath id="a9fd70243d"><path d="M 20.378906 5.066406 L 24.300781 5.066406 L 24.300781 8.992188 L 20.378906 8.992188 Z M 20.378906 5.066406 " clip-rule="nonzero"/></clipPath><clipPath id="5f9ed4d7a6"><path d="M 22.339844 8.992188 C 23.421875 8.992188 24.300781 8.113281 24.300781 7.027344 C 24.300781 5.945312 23.421875 5.066406 22.339844 5.066406 C 21.257812 5.066406 20.378906 5.945312 20.378906 7.027344 C 20.378906 8.113281 21.257812 8.992188 22.339844 8.992188 Z M 22.339844 8.992188 " clip-rule="nonzero"/></clipPath><clipPath id="6d66948c89"><path d="M 0.378906 0.0664062 L 4.300781 0.0664062 L 4.300781 3.992188 L 0.378906 3.992188 Z M 0.378906 0.0664062 " clip-rule="nonzero"/></clipPath><clipPath id="e7433a97ee"><path d="M 2.339844 3.992188 C 3.421875 3.992188 4.300781 3.113281 4.300781 2.027344 C 4.300781 0.945312 3.421875 0.0664062 2.339844 0.0664062 C 1.257812 0.0664062 0.378906 0.945312 0.378906 2.027344 C 0.378906 3.113281 1.257812 3.992188 2.339844 3.992188 Z M 2.339844 3.992188 " clip-rule="nonzero"/></clipPath><clipPath id="2fc676b2d6"><rect x="0" width="5" y="0" height="4"/></clipPath><clipPath id="94224e1b67"><path d="M 16.535156 3.601562 L 18.496094 3.601562 L 18.496094 5.5625 L 16.535156 5.5625 Z M 16.535156 3.601562 " clip-rule="nonzero"/></clipPath><clipPath id="1a8f10712e"><path d="M 17.515625 5.5625 C 18.058594 5.5625 18.496094 5.125 18.496094 4.582031 C 18.496094 4.039062 18.058594 3.601562 17.515625 3.601562 C 16.972656 3.601562 16.535156 4.039062 16.535156 4.582031 C 16.535156 5.125 16.972656 5.5625 17.515625 5.5625 Z M 17.515625 5.5625 " clip-rule="nonzero"/></clipPath><clipPath id="d231a8733a"><path d="M 0.535156 0.601562 L 2.496094 0.601562 L 2.496094 2.5625 L 0.535156 2.5625 Z M 0.535156 0.601562 " clip-rule="nonzero"/></clipPath><clipPath id="7044f7a14d"><path d="M 1.515625 2.5625 C 2.058594 2.5625 2.496094 2.125 2.496094 1.582031 C 2.496094 1.039062 2.058594 0.601562 1.515625 0.601562 C 0.972656 0.601562 0.535156 1.039062 0.535156 1.582031 C 0.535156 2.125 0.972656 2.5625 1.515625 2.5625 Z M 1.515625 2.5625 " clip-rule="nonzero"/></clipPath><clipPath id="72fc9b26c1"><rect x="0" width="3" y="0" height="3"/></clipPath><clipPath id="5199270bac"><path d="M 13.4375 3.359375 L 14.65625 3.359375 L 14.65625 4.582031 L 13.4375 4.582031 Z M 13.4375 3.359375 " clip-rule="nonzero"/></clipPath><clipPath id="3fb0a77594"><path d="M 14.046875 4.582031 C 14.382812 4.582031 14.65625 4.308594 14.65625 3.972656 C 14.65625 3.632812 14.382812 3.359375 14.046875 3.359375 C 13.710938 3.359375 13.4375 3.632812 13.4375 3.972656 C 13.4375 4.308594 13.710938 4.582031 14.046875 4.582031 Z M 14.046875 4.582031 " clip-rule="nonzero"/></clipPath><clipPath id="3396382ac1"><path d="M 0.4375 0.359375 L 1.65625 0.359375 L 1.65625 1.582031 L 0.4375 1.582031 Z M 0.4375 0.359375 " clip-rule="nonzero"/></clipPath><clipPath id="3278236d89"><path d="M 1.046875 1.582031 C 1.382812 1.582031 1.65625 1.308594 1.65625 0.972656 C 1.65625 0.632812 1.382812 0.359375 1.046875 0.359375 C 0.710938 0.359375 0.4375 0.632812 0.4375 0.972656 C 0.4375 1.308594 0.710938 1.582031 1.046875 1.582031 Z M 1.046875 1.582031 " clip-rule="nonzero"/></clipPath><clipPath id="1665a7be8c"><rect x="0" width="2" y="0" height="2"/></clipPath><clipPath id="cd9e91476c"><path d="M 5.066406 12.703125 L 8.992188 12.703125 L 8.992188 16.625 L 5.066406 16.625 Z M 5.066406 12.703125 " clip-rule="nonzero"/></clipPath><clipPath id="2a217cff87"><path d="M 8.992188 14.664062 C 8.992188 13.582031 8.113281 12.703125 7.027344 12.703125 C 5.945312 12.703125 5.066406 13.582031 5.066406 14.664062 C 5.066406 15.746094 5.945312 16.625 7.027344 16.625 C 8.113281 16.625 8.992188 15.746094 8.992188 14.664062 Z M 8.992188 14.664062 " clip-rule="nonzero"/></clipPath><clipPath id="58520167e1"><path d="M 0.0664062 0.703125 L 3.992188 0.703125 L 3.992188 4.625 L 0.0664062 4.625 Z M 0.0664062 0.703125 " clip-rule="nonzero"/></clipPath><clipPath id="84ea42d84d"><path d="M 3.992188 2.664062 C 3.992188 1.582031 3.113281 0.703125 2.027344 0.703125 C 0.945312 0.703125 0.0664062 1.582031 0.0664062 2.664062 C 0.0664062 3.746094 0.945312 4.625 2.027344 4.625 C 3.113281 4.625 3.992188 3.746094 3.992188 2.664062 Z M 3.992188 2.664062 " clip-rule="nonzero"/></clipPath><clipPath id="5deb46a1e4"><rect x="0" width="4" y="0" height="5"/></clipPath><clipPath id="55f35cb7e5"><path d="M 3.601562 18.503906 L 5.5625 18.503906 L 5.5625 20.464844 L 3.601562 20.464844 Z M 3.601562 18.503906 " clip-rule="nonzero"/></clipPath><clipPath id="e991a039ff"><path d="M 5.5625 19.484375 C 5.5625 18.941406 5.125 18.503906 4.582031 18.503906 C 4.039062 18.503906 3.601562 18.941406 3.601562 19.484375 C 3.601562 20.027344 4.039062 20.464844 4.582031 20.464844 C 5.125 20.464844 5.5625 20.027344 5.5625 19.484375 Z M 5.5625 19.484375 " clip-rule="nonzero"/></clipPath><clipPath id="08f0776c23"><path d="M 0.601562 0.503906 L 2.5625 0.503906 L 2.5625 2.464844 L 0.601562 2.464844 Z M 0.601562 0.503906 " clip-rule="nonzero"/></clipPath><clipPath id="304ae5459d"><path d="M 2.5625 1.484375 C 2.5625 0.941406 2.125 0.503906 1.582031 0.503906 C 1.039062 0.503906 0.601562 0.941406 0.601562 1.484375 C 0.601562 2.027344 1.039062 2.464844 1.582031 2.464844 C 2.125 2.464844 2.5625 2.027344 2.5625 1.484375 Z M 2.5625 1.484375 " clip-rule="nonzero"/></clipPath><clipPath id="5e2b0bc622"><rect x="0" width="3" y="0" height="3"/></clipPath><clipPath id="e894ee54b3"><path d="M 3.359375 22.34375 L 4.582031 22.34375 L 4.582031 23.5625 L 3.359375 23.5625 Z M 3.359375 22.34375 " clip-rule="nonzero"/></clipPath><clipPath id="4d065c40ab"><path d="M 4.582031 22.953125 C 4.582031 22.617188 4.308594 22.34375 3.972656 22.34375 C 3.632812 22.34375 3.359375 22.617188 3.359375 22.953125 C 3.359375 23.289062 3.632812 23.5625 3.972656 23.5625 C 4.308594 23.5625 4.582031 23.289062 4.582031 22.953125 Z M 4.582031 22.953125 " clip-rule="nonzero"/></clipPath><clipPath id="65b85ff324"><path d="M 0.359375 0.34375 L 1.582031 0.34375 L 1.582031 1.5625 L 0.359375 1.5625 Z M 0.359375 0.34375 " clip-rule="nonzero"/></clipPath><clipPath id="da29b1a4a8"><path d="M 1.582031 0.953125 C 1.582031 0.617188 1.308594 0.34375 0.972656 0.34375 C 0.632812 0.34375 0.359375 0.617188 0.359375 0.953125 C 0.359375 1.289062 0.632812 1.5625 0.972656 1.5625 C 1.308594 1.5625 1.582031 1.289062 1.582031 0.953125 Z M 1.582031 0.953125 " clip-rule="nonzero"/></clipPath><clipPath id="d51b85a16f"><rect x="0" width="2" y="0" height="2"/></clipPath><clipPath id="ed9743f5ec"><path d="M 5 22 L 10 22 L 10 27 L 5 27 Z M 5 22 " clip-rule="nonzero"/></clipPath><clipPath id="68cd423d70"><path d="M 7.9375 21.390625 L 10.710938 24.164062 L 7.9375 26.9375 L 5.164062 24.164062 Z M 7.9375 21.390625 " clip-rule="nonzero"/></clipPath><clipPath id="8d6161c32c"><path d="M 9.324219 22.777344 C 8.558594 22.007812 7.316406 22.007812 6.550781 22.777344 C 5.785156 23.542969 5.785156 24.785156 6.550781 25.550781 C 7.316406 26.316406 8.558594 26.316406 9.324219 25.550781 C 10.089844 24.785156 10.089844 23.542969 9.324219 22.777344 Z M 9.324219 22.777344 " clip-rule="nonzero"/></clipPath><clipPath id="cec792ef06"><path d="M 0.683594 0 L 5 0 L 5 4.527344 L 0.683594 4.527344 Z M 0.683594 0 " clip-rule="nonzero"/></clipPath><clipPath id="d06efef95c"><path d="M 2.9375 -0.609375 L 5.710938 2.164062 L 2.9375 4.9375 L 0.164062 2.164062 Z M 2.9375 -0.609375 " clip-rule="nonzero"/></clipPath><clipPath id="974770e105"><path d="M 4.324219 0.777344 C 3.558594 0.0078125 2.316406 0.0078125 1.550781 0.777344 C 0.785156 1.542969 0.785156 2.785156 1.550781 3.550781 C 2.316406 4.316406 3.558594 4.316406 4.324219 3.550781 C 5.089844 2.785156 5.089844 1.542969 4.324219 0.777344 Z M 4.324219 0.777344 " clip-rule="nonzero"/></clipPath><clipPath id="b956d70cf8"><rect x="0" width="5" y="0" height="5"/></clipPath><clipPath id="f63d3de746"><path d="M 8 28 L 11 28 L 11 31 L 8 31 Z M 8 28 " clip-rule="nonzero"/></clipPath><clipPath id="3bf1923fa3"><path d="M 9.617188 27.910156 L 11.003906 29.300781 L 9.617188 30.6875 L 8.230469 29.300781 Z M 9.617188 27.910156 " clip-rule="nonzero"/></clipPath><clipPath id="e56aba521e"><path d="M 10.308594 28.605469 C 9.925781 28.222656 9.304688 28.222656 8.921875 28.605469 C 8.539062 28.988281 8.539062 29.609375 8.921875 29.992188 C 9.304688 30.375 9.925781 30.375 10.308594 29.992188 C 10.691406 29.609375 10.691406 28.988281 10.308594 28.605469 Z M 10.308594 28.605469 " clip-rule="nonzero"/></clipPath><clipPath id="35bc7f9542"><path d="M 0.527344 0.183594 L 2.894531 0.183594 L 2.894531 2.550781 L 0.527344 2.550781 Z M 0.527344 0.183594 " clip-rule="nonzero"/></clipPath><clipPath id="1f7fe3ba0f"><path d="M 1.617188 -0.0898438 L 3.003906 1.300781 L 1.617188 2.6875 L 0.230469 1.300781 Z M 1.617188 -0.0898438 " clip-rule="nonzero"/></clipPath><clipPath id="c182f8f7cf"><path d="M 2.308594 0.605469 C 1.925781 0.222656 1.304688 0.222656 0.921875 0.605469 C 0.539062 0.988281 0.539062 1.609375 0.921875 1.992188 C 1.304688 2.375 1.925781 2.375 2.308594 1.992188 C 2.691406 1.609375 2.691406 0.988281 2.308594 0.605469 Z M 2.308594 0.605469 " clip-rule="nonzero"/></clipPath><clipPath id="7923c59dfa"><rect x="0" width="3" y="0" height="3"/></clipPath><clipPath id="417b642c3c"><path d="M 11 31 L 13 31 L 13 33 L 11 33 Z M 11 31 " clip-rule="nonzero"/></clipPath><clipPath id="22269f659e"><path d="M 11.636719 31.320312 L 12.5 32.183594 L 11.636719 33.046875 L 10.773438 32.183594 Z M 11.636719 31.320312 " clip-rule="nonzero"/></clipPath><clipPath id="a802f3583a"><path d="M 12.070312 31.753906 C 11.832031 31.511719 11.445312 31.511719 11.207031 31.753906 C 10.96875 31.992188 10.96875 32.378906 11.207031 32.617188 C 11.445312 32.855469 11.832031 32.855469 12.070312 32.617188 C 12.308594 32.378906 12.308594 31.992188 12.070312 31.753906 Z M 12.070312 31.753906 " clip-rule="nonzero"/></clipPath><clipPath id="bb895be08d"><path d="M 0 0.5 L 1.316406 0.5 L 1.316406 1.921875 L 0 1.921875 Z M 0 0.5 " clip-rule="nonzero"/></clipPath><clipPath id="ad65a67ca5"><path d="M 0.636719 0.320312 L 1.5 1.183594 L 0.636719 2.046875 L -0.226562 1.183594 Z M 0.636719 0.320312 " clip-rule="nonzero"/></clipPath><clipPath id="67ddf1f5ae"><path d="M 1.070312 0.753906 C 0.832031 0.511719 0.445312 0.511719 0.207031 0.753906 C -0.03125 0.992188 -0.03125 1.378906 0.207031 1.617188 C 0.445312 1.855469 0.832031 1.855469 1.070312 1.617188 C 1.308594 1.378906 1.308594 0.992188 1.070312 0.753906 Z M 1.070312 0.753906 " clip-rule="nonzero"/></clipPath><clipPath id="0a4e110d6b"><rect x="0" width="2" y="0" height="2"/></clipPath><clipPath id="b6eee2108d"><path d="M 22 27 L 27 27 L 27 32 L 22 32 Z M 22 27 " clip-rule="nonzero"/></clipPath><clipPath id="38028b574a"><path d="M 21.390625 29.066406 L 24.164062 26.292969 L 26.9375 29.066406 L 24.164062 31.839844 Z M 21.390625 29.066406 " clip-rule="nonzero"/></clipPath><clipPath id="e9dc6947cd"><path d="M 22.777344 27.679688 C 22.007812 28.445312 22.007812 29.6875 22.777344 30.453125 C 23.542969 31.21875 24.785156 31.21875 25.550781 30.453125 C 26.316406 29.6875 26.316406 28.445312 25.550781 27.679688 C 24.785156 26.914062 23.542969 26.914062 22.777344 27.679688 Z M 22.777344 27.679688 " clip-rule="nonzero"/></clipPath><clipPath id="c20209197c"><path d="M 0 0 L 4.527344 0 L 4.527344 4.261719 L 0 4.261719 Z M 0 0 " clip-rule="nonzero"/></clipPath><clipPath id="96fb078c80"><path d="M -0.609375 2.066406 L 2.164062 -0.707031 L 4.9375 2.066406 L 2.164062 4.839844 Z M -0.609375 2.066406 " clip-rule="nonzero"/></clipPath><clipPath id="5a0c9f714b"><path d="M 0.777344 0.679688 C 0.0078125 1.445312 0.0078125 2.6875 0.777344 3.453125 C 1.542969 4.21875 2.785156 4.21875 3.550781 3.453125 C 4.316406 2.6875 4.316406 1.445312 3.550781 0.679688 C 2.785156 -0.0859375 1.542969 -0.0859375 0.777344 0.679688 Z M 0.777344 0.679688 " clip-rule="nonzero"/></clipPath><clipPath id="55295b5777"><rect x="0" width="5" y="0" height="5"/></clipPath><clipPath id="f4fc1cdbeb"><path d="M 28 26 L 31 26 L 31 29 L 28 29 Z M 28 26 " clip-rule="nonzero"/></clipPath><clipPath id="b66efb9c7d"><path d="M 27.910156 27.382812 L 29.300781 25.996094 L 30.6875 27.382812 L 29.300781 28.769531 Z M 27.910156 27.382812 " clip-rule="nonzero"/></clipPath><clipPath id="7682623a4e"><path d="M 28.605469 26.691406 C 28.222656 27.074219 28.222656 27.695312 28.605469 28.078125 C 28.988281 28.460938 29.609375 28.460938 29.992188 28.078125 C 30.375 27.695312 30.375 27.074219 29.992188 26.691406 C 29.609375 26.308594 28.988281 26.308594 28.605469 26.691406 Z M 28.605469 26.691406 " clip-rule="nonzero"/></clipPath><clipPath id="b6e267fabd"><path d="M 0.183594 0.289062 L 2.550781 0.289062 L 2.550781 2.65625 L 0.183594 2.65625 Z M 0.183594 0.289062 " clip-rule="nonzero"/></clipPath><clipPath id="952ca2000c"><path d="M -0.0898438 1.382812 L 1.300781 -0.00390625 L 2.6875 1.382812 L 1.300781 2.769531 Z M -0.0898438 1.382812 " clip-rule="nonzero"/></clipPath><clipPath id="5fa4e516b3"><path d="M 0.605469 0.691406 C 0.222656 1.074219 0.222656 1.695312 0.605469 2.078125 C 0.988281 2.460938 1.609375 2.460938 1.992188 2.078125 C 2.375 1.695312 2.375 1.074219 1.992188 0.691406 C 1.609375 0.308594 0.988281 0.308594 0.605469 0.691406 Z M 0.605469 0.691406 " clip-rule="nonzero"/></clipPath><clipPath id="fef74677d1"><rect x="0" width="3" y="0" height="3"/></clipPath><clipPath id="9edc40cb70"><path d="M 31 24 L 33 24 L 33 26 L 31 26 Z M 31 24 " clip-rule="nonzero"/></clipPath><clipPath id="36db5348ea"><path d="M 31.320312 25.363281 L 32.183594 24.5 L 33.046875 25.363281 L 32.183594 26.226562 Z M 31.320312 25.363281 " clip-rule="nonzero"/></clipPath><clipPath id="ab42bda1ab"><path d="M 31.753906 24.929688 C 31.511719 25.167969 31.511719 25.554688 31.753906 25.792969 C 31.992188 26.03125 32.378906 26.03125 32.617188 25.792969 C 32.855469 25.554688 32.855469 25.167969 32.617188 24.929688 C 32.378906 24.691406 31.992188 24.691406 31.753906 24.929688 Z M 31.753906 24.929688 " clip-rule="nonzero"/></clipPath><clipPath id="aaf3136120"><path d="M 0.5 0.632812 L 1.921875 0.632812 L 1.921875 2 L 0.5 2 Z M 0.5 0.632812 " clip-rule="nonzero"/></clipPath><clipPath id="ac074cbc9f"><path d="M 0.320312 1.363281 L 1.183594 0.5 L 2.046875 1.363281 L 1.183594 2.226562 Z M 0.320312 1.363281 " clip-rule="nonzero"/></clipPath><clipPath id="06d6e51b76"><path d="M 0.753906 0.929688 C 0.511719 1.167969 0.511719 1.554688 0.753906 1.792969 C 0.992188 2.03125 1.378906 2.03125 1.617188 1.792969 C 1.855469 1.554688 1.855469 1.167969 1.617188 0.929688 C 1.378906 0.691406 0.992188 0.691406 0.753906 0.929688 Z M 0.753906 0.929688 " clip-rule="nonzero"/></clipPath><clipPath id="c00e888382"><rect x="0" width="2" y="0" height="2"/></clipPath><clipPath id="50623c8318"><path d="M 27 11 L 32 11 L 32 16 L 27 16 Z M 27 11 " clip-rule="nonzero"/></clipPath><clipPath id="349273e814"><path d="M 29.328125 15.878906 L 26.554688 13.101562 L 29.328125 10.328125 L 32.101562 13.101562 Z M 29.328125 15.878906 " clip-rule="nonzero"/></clipPath><clipPath id="725643e863"><path d="M 27.941406 14.492188 C 28.707031 15.257812 29.949219 15.257812 30.714844 14.492188 C 31.480469 13.722656 31.480469 12.484375 30.714844 11.714844 C 29.949219 10.949219 28.707031 10.949219 27.941406 11.714844 C 27.175781 12.484375 27.175781 13.722656 27.941406 14.492188 Z M 27.941406 14.492188 " clip-rule="nonzero"/></clipPath><clipPath id="c0db6d8a3e"><path d="M 0 0 L 4.5 0 L 4.5 4.394531 L 0 4.394531 Z M 0 0 " clip-rule="nonzero"/></clipPath><clipPath id="0ffe58561c"><path d="M 2.328125 4.878906 L -0.445312 2.101562 L 2.328125 -0.671875 L 5.101562 2.101562 Z M 2.328125 4.878906 " clip-rule="nonzero"/></clipPath><clipPath id="60bbfa3121"><path d="M 0.941406 3.492188 C 1.707031 4.257812 2.949219 4.257812 3.714844 3.492188 C 4.480469 2.722656 4.480469 1.484375 3.714844 0.714844 C 2.949219 -0.0507812 1.707031 -0.0507812 0.941406 0.714844 C 0.175781 1.484375 0.175781 2.722656 0.941406 3.492188 Z M 0.941406 3.492188 " clip-rule="nonzero"/></clipPath><clipPath id="66504eef4a"><rect x="0" width="5" y="0" height="5"/></clipPath><clipPath id="e637f8bee3"><path d="M 26 6 L 29 6 L 29 9 L 26 9 Z M 26 6 " clip-rule="nonzero"/></clipPath><clipPath id="8991138b5f"><path d="M 27.644531 9.347656 L 26.257812 7.960938 L 27.644531 6.574219 L 29.03125 7.960938 Z M 27.644531 9.347656 " clip-rule="nonzero"/></clipPath><clipPath id="96cab49b6f"><path d="M 26.953125 8.65625 C 27.335938 9.039062 27.957031 9.039062 28.339844 8.65625 C 28.722656 8.273438 28.722656 7.652344 28.339844 7.269531 C 27.957031 6.886719 27.335938 6.886719 26.953125 7.269531 C 26.570312 7.652344 26.570312 8.273438 26.953125 8.65625 Z M 26.953125 8.65625 " clip-rule="nonzero"/></clipPath><clipPath id="a51c94ca7a"><path d="M 0.527344 0.867188 L 2.894531 0.867188 L 2.894531 3 L 0.527344 3 Z M 0.527344 0.867188 " clip-rule="nonzero"/></clipPath><clipPath id="746706cdd9"><path d="M 1.644531 3.347656 L 0.257812 1.960938 L 1.644531 0.574219 L 3.03125 1.960938 Z M 1.644531 3.347656 " clip-rule="nonzero"/></clipPath><clipPath id="4d17b7087c"><path d="M 0.953125 2.65625 C 1.335938 3.039062 1.957031 3.039062 2.339844 2.65625 C 2.722656 2.273438 2.722656 1.652344 2.339844 1.269531 C 1.957031 0.886719 1.335938 0.886719 0.953125 1.269531 C 0.570312 1.652344 0.570312 2.273438 0.953125 2.65625 Z M 0.953125 2.65625 " clip-rule="nonzero"/></clipPath><clipPath id="2b28432247"><rect x="0" width="3" y="0" height="3"/></clipPath><clipPath id="0d8e30a59c"><path d="M 25 4 L 27 4 L 27 6 L 25 6 Z M 25 4 " clip-rule="nonzero"/></clipPath><clipPath id="b38e3a1fce"><path d="M 25.625 5.941406 L 24.761719 5.078125 L 25.625 4.214844 L 26.488281 5.078125 Z M 25.625 5.941406 " clip-rule="nonzero"/></clipPath><clipPath id="176c703c42"><path d="M 25.191406 5.507812 C 25.429688 5.746094 25.816406 5.746094 26.054688 5.507812 C 26.292969 5.269531 26.292969 4.882812 26.054688 4.644531 C 25.816406 4.40625 25.429688 4.40625 25.191406 4.644531 C 24.953125 4.882812 24.953125 5.269531 25.191406 5.507812 Z M 25.191406 5.507812 " clip-rule="nonzero"/></clipPath><clipPath id="5de4d859c1"><path d="M 0 0.261719 L 1.527344 0.261719 L 1.527344 1.921875 L 0 1.921875 Z M 0 0.261719 " clip-rule="nonzero"/></clipPath><clipPath id="092e76445b"><path d="M 0.625 1.941406 L -0.238281 1.078125 L 0.625 0.214844 L 1.488281 1.078125 Z M 0.625 1.941406 " clip-rule="nonzero"/></clipPath><clipPath id="3149472911"><path d="M 0.191406 1.507812 C 0.429688 1.746094 0.816406 1.746094 1.054688 1.507812 C 1.292969 1.269531 1.292969 0.882812 1.054688 0.644531 C 0.816406 0.40625 0.429688 0.40625 0.191406 0.644531 C -0.046875 0.882812 -0.046875 1.269531 0.191406 1.507812 Z M 0.191406 1.507812 " clip-rule="nonzero"/></clipPath><clipPath id="8c6a8c62e4"><rect x="0" width="2" y="0" height="2"/></clipPath><clipPath id="20a1a70bf0"><path d="M 11 5 L 16 5 L 16 10 L 11 10 Z M 11 5 " clip-rule="nonzero"/></clipPath><clipPath id="704ab7630a"><path d="M 15.878906 7.675781 L 13.101562 10.449219 L 10.328125 7.675781 L 13.101562 4.902344 Z M 15.878906 7.675781 " clip-rule="nonzero"/></clipPath><clipPath id="7ac42e91ba"><path d="M 14.492188 9.0625 C 15.257812 8.296875 15.257812 7.054688 14.492188 6.289062 C 13.722656 5.523438 12.484375 5.523438 11.714844 6.289062 C 10.949219 7.054688 10.949219 8.296875 11.714844 9.0625 C 12.484375 9.828125 13.722656 9.828125 14.492188 9.0625 Z M 14.492188 9.0625 " clip-rule="nonzero"/></clipPath><clipPath id="472405b70f"><path d="M 0 0.449219 L 4.394531 0.449219 L 4.394531 4.949219 L 0 4.949219 Z M 0 0.449219 " clip-rule="nonzero"/></clipPath><clipPath id="b05b050481"><path d="M 4.878906 2.675781 L 2.101562 5.449219 L -0.671875 2.675781 L 2.101562 -0.0976562 Z M 4.878906 2.675781 " clip-rule="nonzero"/></clipPath><clipPath id="0c50211f70"><path d="M 3.492188 4.0625 C 4.257812 3.296875 4.257812 2.054688 3.492188 1.289062 C 2.722656 0.523438 1.484375 0.523438 0.714844 1.289062 C -0.0507812 2.054688 -0.0507812 3.296875 0.714844 4.0625 C 1.484375 4.828125 2.722656 4.828125 3.492188 4.0625 Z M 3.492188 4.0625 " clip-rule="nonzero"/></clipPath><clipPath id="c5830d7c3e"><rect x="0" width="5" y="0" height="5"/></clipPath><clipPath id="ec65cb459f"><path d="M 6 8 L 9 8 L 9 11 L 6 11 Z M 6 8 " clip-rule="nonzero"/></clipPath><clipPath id="a961416496"><path d="M 9.347656 9.355469 L 7.960938 10.742188 L 6.574219 9.355469 L 7.960938 7.96875 Z M 9.347656 9.355469 " clip-rule="nonzero"/></clipPath><clipPath id="33e2e2ff3b"><path d="M 8.65625 10.046875 C 9.039062 9.664062 9.039062 9.042969 8.65625 8.660156 C 8.273438 8.277344 7.652344 8.277344 7.269531 8.660156 C 6.886719 9.042969 6.886719 9.664062 7.269531 10.046875 C 7.652344 10.429688 8.273438 10.429688 8.65625 10.046875 Z M 8.65625 10.046875 " clip-rule="nonzero"/></clipPath><clipPath id="3021be1ee1"><path d="M 0.867188 0.0507812 L 3 0.0507812 L 3 2.65625 L 0.867188 2.65625 Z M 0.867188 0.0507812 " clip-rule="nonzero"/></clipPath><clipPath id="3b89c57508"><path d="M 3.347656 1.355469 L 1.960938 2.742188 L 0.574219 1.355469 L 1.960938 -0.03125 Z M 3.347656 1.355469 " clip-rule="nonzero"/></clipPath><clipPath id="d9643f2abc"><path d="M 2.65625 2.046875 C 3.039062 1.664062 3.039062 1.042969 2.65625 0.660156 C 2.273438 0.277344 1.652344 0.277344 1.269531 0.660156 C 0.886719 1.042969 0.886719 1.664062 1.269531 2.046875 C 1.652344 2.429688 2.273438 2.429688 2.65625 2.046875 Z M 2.65625 2.046875 " clip-rule="nonzero"/></clipPath><clipPath id="59c08aba0e"><rect x="0" width="3" y="0" height="3"/></clipPath><clipPath id="c305bb7dc4"><path d="M 4 10 L 6 10 L 6 12 L 4 12 Z M 4 10 " clip-rule="nonzero"/></clipPath><clipPath id="456cf809b7"><path d="M 5.941406 11.375 L 5.078125 12.238281 L 4.214844 11.375 L 5.078125 10.511719 Z M 5.941406 11.375 " clip-rule="nonzero"/></clipPath><clipPath id="e55b3a292b"><path d="M 5.507812 11.808594 C 5.746094 11.570312 5.746094 11.183594 5.507812 10.945312 C 5.269531 10.707031 4.882812 10.707031 4.644531 10.945312 C 4.40625 11.183594 4.40625 11.570312 4.644531 11.808594 C 4.882812 12.046875 5.269531 12.046875 5.507812 11.808594 Z M 5.507812 11.808594 " clip-rule="nonzero"/></clipPath><clipPath id="a511073909"><path d="M 0.261719 0.65625 L 1.921875 0.65625 L 1.921875 2 L 0.261719 2 Z M 0.261719 0.65625 " clip-rule="nonzero"/></clipPath><clipPath id="5245b84421"><path d="M 1.941406 1.375 L 1.078125 2.238281 L 0.214844 1.375 L 1.078125 0.511719 Z M 1.941406 1.375 " clip-rule="nonzero"/></clipPath><clipPath id="6e65098141"><path d="M 1.507812 1.808594 C 1.746094 1.570312 1.746094 1.183594 1.507812 0.945312 C 1.269531 0.707031 0.882812 0.707031 0.644531 0.945312 C 0.40625 1.183594 0.40625 1.570312 0.644531 1.808594 C 0.882812 2.046875 1.269531 2.046875 1.507812 1.808594 Z M 1.507812 1.808594 " clip-rule="nonzero"/></clipPath><clipPath id="54d19af69e"><rect x="0" width="2" y="0" height="2"/></clipPath></defs><g clip-path="url(#40e4a41de6)"><g clip-path="url(#8cd68b6db1)"><g transform="matrix(1, 0, 0, 1, 11, 11)"><g clip-path="url(#53f727e4cc)"><g clip-path="url(#4f325d336c)"><g clip-path="url(#985133f855)"><path fill="#ff5757" d="M 0.214844 0.214844 L 14.792969 0.214844 L 14.792969 14.792969 L 0.214844 14.792969 Z M 0.214844 0.214844 " fill-opacity="1" fill-rule="nonzero"/></g></g></g></g></g></g><g clip-path="url(#78efa75178)"><g clip-path="url(#2166867eed)"><g transform="matrix(1, 0, 0, 1, 13, 28)"><g clip-path="url(#b910f6324b)"><g clip-path="url(#edf93ec3d5)"><g clip-path="url(#26cf616ba2)"><path fill="#ff5757" d="M 0.0742188 0.015625 L 3.996094 0.015625 L 3.996094 3.9375 L 0.0742188 3.9375 Z M 0.0742188 0.015625 " fill-opacity="1" fill-rule="nonzero"/></g></g></g></g></g></g><g clip-path="url(#caac6237ad)"><g clip-path="url(#e892abf539)"><g transform="matrix(1, 0, 0, 1, 18, 31)"><g clip-path="url(#aa9e490efe)"><g clip-path="url(#c5c16de4ea)"><g clip-path="url(#2fd32f0de7)"><path fill="#ff5757" d="M 0.875 0.4375 L 2.835938 0.4375 L 2.835938 2.398438 L 0.875 2.398438 Z M 0.875 0.4375 " fill-opacity="1" fill-rule="nonzero"/></g></g></g></g></g></g><g clip-path="url(#152281be33)"><g clip-path="url(#1517ffdd14)"><g transform="matrix(1, 0, 0, 1, 22, 32)"><g clip-path="url(#df59142169)"><g clip-path="url(#8a8743e7bb)"><g clip-path="url(#ea4b8b9795)"><path fill="#ff5757" d="M 0.710938 0.417969 L 1.933594 0.417969 L 1.933594 1.640625 L 0.710938 1.640625 Z M 0.710938 0.417969 " fill-opacity="1" fill-rule="nonzero"/></g></g></g></g></g></g><g clip-path="url(#fb11002346)"><g clip-path="url(#d230b8e2e6)"><g transform="matrix(1, 0, 0, 1, 28, 20)"><g clip-path="url(#ff840f3e36)"><g clip-path="url(#b2556d418f)"><g clip-path="url(#66d549c514)"><path fill="#ff5757" d="M 0.015625 3.933594 L 0.015625 0.0078125 L 3.9375 0.0078125 L 3.9375 3.933594 Z M 0.015625 3.933594 " fill-opacity="1" fill-rule="nonzero"/></g></g></g></g></g></g><g clip-path="url(#2665e37bb0)"><g clip-path="url(#5ae08f803a)"><g transform="matrix(1, 0, 0, 1, 31, 16)"><g clip-path="url(#c9aec356aa)"><g clip-path="url(#d5586515ee)"><g clip-path="url(#bfb393cd99)"><path fill="#ff5757" d="M 0.4375 2.125 L 0.4375 0.164062 L 2.398438 0.164062 L 2.398438 2.125 Z M 0.4375 2.125 " fill-opacity="1" fill-rule="nonzero"/></g></g></g></g></g></g><g clip-path="url(#7505668ea3)"><g clip-path="url(#fbb66083cb)"><g transform="matrix(1, 0, 0, 1, 32, 13)"><g clip-path="url(#f662d64d37)"><g clip-path="url(#56c73e1ff8)"><g clip-path="url(#3035c2ab4a)"><path fill="#ff5757" d="M 0.417969 1.285156 L 0.417969 0.0664062 L 1.640625 0.0664062 L 1.640625 1.285156 Z M 0.417969 1.285156 " fill-opacity="1" fill-rule="nonzero"/></g></g></g></g></g></g><g clip-path="url(#a9fd70243d)"><g clip-path="url(#5f9ed4d7a6)"><g transform="matrix(1, 0, 0, 1, 20, 5)"><g clip-path="url(#2fc676b2d6)"><g clip-path="url(#6d66948c89)"><g clip-path="url(#e7433a97ee)"><path fill="#ff5757" d="M 4.300781 3.992188 L 0.378906 3.992188 L 0.378906 0.0664062 L 4.300781 0.0664062 Z M 4.300781 3.992188 " fill-opacity="1" fill-rule="nonzero"/></g></g></g></g></g></g><g clip-path="url(#94224e1b67)"><g clip-path="url(#1a8f10712e)"><g transform="matrix(1, 0, 0, 1, 16, 3)"><g clip-path="url(#72fc9b26c1)"><g clip-path="url(#d231a8733a)"><g clip-path="url(#7044f7a14d)"><path fill="#ff5757" d="M 2.496094 2.5625 L 0.535156 2.5625 L 0.535156 0.601562 L 2.496094 0.601562 Z M 2.496094 2.5625 " fill-opacity="1" fill-rule="nonzero"/></g></g></g></g></g></g><g clip-path="url(#5199270bac)"><g clip-path="url(#3fb0a77594)"><g transform="matrix(1, 0, 0, 1, 13, 3)"><g clip-path="url(#1665a7be8c)"><g clip-path="url(#3396382ac1)"><g clip-path="url(#3278236d89)"><path fill="#ff5757" d="M 1.65625 1.582031 L 0.4375 1.582031 L 0.4375 0.359375 L 1.65625 0.359375 Z M 1.65625 1.582031 " fill-opacity="1" fill-rule="nonzero"/></g></g></g></g></g></g><g clip-path="url(#cd9e91476c)"><g clip-path="url(#2a217cff87)"><g transform="matrix(1, 0, 0, 1, 5, 12)"><g clip-path="url(#5deb46a1e4)"><g clip-path="url(#58520167e1)"><g clip-path="url(#84ea42d84d)"><path fill="#ff5757" d="M 3.992188 0.703125 L 3.992188 4.625 L 0.0664062 4.625 L 0.0664062 0.703125 Z M 3.992188 0.703125 " fill-opacity="1" fill-rule="nonzero"/></g></g></g></g></g></g><g clip-path="url(#55f35cb7e5)"><g clip-path="url(#e991a039ff)"><g transform="matrix(1, 0, 0, 1, 3, 18)"><g clip-path="url(#5e2b0bc622)"><g clip-path="url(#08f0776c23)"><g clip-path="url(#304ae5459d)"><path fill="#ff5757" d="M 2.5625 0.503906 L 2.5625 2.464844 L 0.601562 2.464844 L 0.601562 0.503906 Z M 2.5625 0.503906 " fill-opacity="1" fill-rule="nonzero"/></g></g></g></g></g></g><g clip-path="url(#e894ee54b3)"><g clip-path="url(#4d065c40ab)"><g transform="matrix(1, 0, 0, 1, 3, 22)"><g clip-path="url(#d51b85a16f)"><g clip-path="url(#65b85ff324)"><g clip-path="url(#da29b1a4a8)"><path fill="#ff5757" d="M 1.582031 0.34375 L 1.582031 1.5625 L 0.359375 1.5625 L 0.359375 0.34375 Z M 1.582031 0.34375 " fill-opacity="1" fill-rule="nonzero"/></g></g></g></g></g></g><g clip-path="url(#ed9743f5ec)"><g clip-path="url(#68cd423d70)"><g clip-path="url(#8d6161c32c)"><g transform="matrix(1, 0, 0, 1, 5, 22)"><g clip-path="url(#b956d70cf8)"><g clip-path="url(#cec792ef06)"><g clip-path="url(#d06efef95c)"><g clip-path="url(#974770e105)"><path fill="#ff5757" d="M 2.9375 -0.609375 L 5.710938 2.164062 L 2.9375 4.9375 L 0.164062 2.164062 Z M 2.9375 -0.609375 " fill-opacity="1" fill-rule="nonzero"/></g></g></g></g></g></g></g></g><g clip-path="url(#f63d3de746)"><g clip-path="url(#3bf1923fa3)"><g clip-path="url(#e56aba521e)"><g transform="matrix(1, 0, 0, 1, 8, 28)"><g clip-path="url(#7923c59dfa)"><g clip-path="url(#35bc7f9542)"><g clip-path="url(#1f7fe3ba0f)"><g clip-path="url(#c182f8f7cf)"><path fill="#ff5757" d="M 1.617188 -0.0898438 L 3.003906 1.300781 L 1.617188 2.6875 L 0.230469 1.300781 Z M 1.617188 -0.0898438 " fill-opacity="1" fill-rule="nonzero"/></g></g></g></g></g></g></g></g><g clip-path="url(#417b642c3c)"><g clip-path="url(#22269f659e)"><g clip-path="url(#a802f3583a)"><g transform="matrix(1, 0, 0, 1, 11, 31)"><g clip-path="url(#0a4e110d6b)"><g clip-path="url(#bb895be08d)"><g clip-path="url(#ad65a67ca5)"><g clip-path="url(#67ddf1f5ae)"><path fill="#ff5757" d="M 0.636719 0.320312 L 1.5 1.183594 L 0.636719 2.046875 L -0.226562 1.183594 Z M 0.636719 0.320312 " fill-opacity="1" fill-rule="nonzero"/></g></g></g></g></g></g></g></g><g clip-path="url(#b6eee2108d)"><g clip-path="url(#38028b574a)"><g clip-path="url(#e9dc6947cd)"><g transform="matrix(1, 0, 0, 1, 22, 27)"><g clip-path="url(#55295b5777)"><g clip-path="url(#c20209197c)"><g clip-path="url(#96fb078c80)"><g clip-path="url(#5a0c9f714b)"><path fill="#ff5757" d="M -0.609375 2.066406 L 2.164062 -0.707031 L 4.9375 2.066406 L 2.164062 4.839844 Z M -0.609375 2.066406 " fill-opacity="1" fill-rule="nonzero"/></g></g></g></g></g></g></g></g><g clip-path="url(#f4fc1cdbeb)"><g clip-path="url(#b66efb9c7d)"><g clip-path="url(#7682623a4e)"><g transform="matrix(1, 0, 0, 1, 28, 26)"><g clip-path="url(#fef74677d1)"><g clip-path="url(#b6e267fabd)"><g clip-path="url(#952ca2000c)"><g clip-path="url(#5fa4e516b3)"><path fill="#ff5757" d="M -0.0898438 1.382812 L 1.300781 -0.00390625 L 2.6875 1.382812 L 1.300781 2.769531 Z M -0.0898438 1.382812 " fill-opacity="1" fill-rule="nonzero"/></g></g></g></g></g></g></g></g><g clip-path="url(#9edc40cb70)"><g clip-path="url(#36db5348ea)"><g clip-path="url(#ab42bda1ab)"><g transform="matrix(1, 0, 0, 1, 31, 24)"><g clip-path="url(#c00e888382)"><g clip-path="url(#aaf3136120)"><g clip-path="url(#ac074cbc9f)"><g clip-path="url(#06d6e51b76)"><path fill="#ff5757" d="M 0.320312 1.363281 L 1.183594 0.5 L 2.046875 1.363281 L 1.183594 2.226562 Z M 0.320312 1.363281 " fill-opacity="1" fill-rule="nonzero"/></g></g></g></g></g></g></g></g><g clip-path="url(#50623c8318)"><g clip-path="url(#349273e814)"><g clip-path="url(#725643e863)"><g transform="matrix(1, 0, 0, 1, 27, 11)"><g clip-path="url(#66504eef4a)"><g clip-path="url(#c0db6d8a3e)"><g clip-path="url(#0ffe58561c)"><g clip-path="url(#60bbfa3121)"><path fill="#ff5757" d="M 2.328125 4.878906 L -0.445312 2.101562 L 2.328125 -0.671875 L 5.101562 2.101562 Z M 2.328125 4.878906 " fill-opacity="1" fill-rule="nonzero"/></g></g></g></g></g></g></g></g><g clip-path="url(#e637f8bee3)"><g clip-path="url(#8991138b5f)"><g clip-path="url(#96cab49b6f)"><g transform="matrix(1, 0, 0, 1, 26, 6)"><g clip-path="url(#2b28432247)"><g clip-path="url(#a51c94ca7a)"><g clip-path="url(#746706cdd9)"><g clip-path="url(#4d17b7087c)"><path fill="#ff5757" d="M 1.644531 3.347656 L 0.257812 1.960938 L 1.644531 0.574219 L 3.03125 1.960938 Z M 1.644531 3.347656 " fill-opacity="1" fill-rule="nonzero"/></g></g></g></g></g></g></g></g><g clip-path="url(#0d8e30a59c)"><g clip-path="url(#b38e3a1fce)"><g clip-path="url(#176c703c42)"><g transform="matrix(1, 0, 0, 1, 25, 4)"><g clip-path="url(#8c6a8c62e4)"><g clip-path="url(#5de4d859c1)"><g clip-path="url(#092e76445b)"><g clip-path="url(#3149472911)"><path fill="#ff5757" d="M 0.625 1.941406 L -0.238281 1.078125 L 0.625 0.214844 L 1.488281 1.078125 Z M 0.625 1.941406 " fill-opacity="1" fill-rule="nonzero"/></g></g></g></g></g></g></g></g><g clip-path="url(#20a1a70bf0)"><g clip-path="url(#704ab7630a)"><g clip-path="url(#7ac42e91ba)"><g transform="matrix(1, 0, 0, 1, 11, 5)"><g clip-path="url(#c5830d7c3e)"><g clip-path="url(#472405b70f)"><g clip-path="url(#b05b050481)"><g clip-path="url(#0c50211f70)"><path fill="#ff5757" d="M 4.878906 2.675781 L 2.101562 5.449219 L -0.671875 2.675781 L 2.101562 -0.0976562 Z M 4.878906 2.675781 " fill-opacity="1" fill-rule="nonzero"/></g></g></g></g></g></g></g></g><g clip-path="url(#ec65cb459f)"><g clip-path="url(#a961416496)"><g clip-path="url(#33e2e2ff3b)"><g transform="matrix(1, 0, 0, 1, 6, 8)"><g clip-path="url(#59c08aba0e)"><g clip-path="url(#3021be1ee1)"><g clip-path="url(#3b89c57508)"><g clip-path="url(#d9643f2abc)"><path fill="#ff5757" d="M 3.347656 1.355469 L 1.960938 2.742188 L 0.574219 1.355469 L 1.960938 -0.03125 Z M 3.347656 1.355469 " fill-opacity="1" fill-rule="nonzero"/></g></g></g></g></g></g></g></g><g clip-path="url(#c305bb7dc4)"><g clip-path="url(#456cf809b7)"><g clip-path="url(#e55b3a292b)"><g transform="matrix(1, 0, 0, 1, 4, 10)"><g clip-path="url(#54d19af69e)"><g clip-path="url(#a511073909)"><g clip-path="url(#5245b84421)"><g clip-path="url(#6e65098141)"><path fill="#ff5757" d="M 1.941406 1.375 L 1.078125 2.238281 L 0.214844 1.375 L 1.078125 0.511719 Z M 1.941406 1.375 " fill-opacity="1" fill-rule="nonzero"/></g></g></g></g></g></g></g></g></svg>